<mxfile host="app.diagrams.net" agent="Mozilla/5.0 (Windows NT 10.0; Win64; x64) AppleWebKit/537.36 (KHTML, like Gecko) Chrome/128.0.0.0 Safari/537.36 OPR/114.0.0.0" version="24.8.0">
  <diagram name="PÃ¡gina-1" id="u-rAJguVnBnGFT5fQt-j">
    <mxGraphModel dx="3051" dy="1134" grid="1" gridSize="10" guides="1" tooltips="1" connect="1" arrows="1" fold="1" page="1" pageScale="1" pageWidth="827" pageHeight="1169" math="0" shadow="0">
      <root>
        <mxCell id="0" />
        <mxCell id="1" parent="0" />
        <mxCell id="oApBd-zSoWxOv1SW6AWs-1" value="&lt;font style=&quot;font-size: 14px;&quot;&gt;Producto&lt;/font&gt;" style="rounded=0;whiteSpace=wrap;html=1;" parent="1" vertex="1">
          <mxGeometry x="-130" y="230" width="150" height="80" as="geometry" />
        </mxCell>
        <mxCell id="oApBd-zSoWxOv1SW6AWs-2" value="img" style="ellipse;whiteSpace=wrap;html=1;" parent="1" vertex="1">
          <mxGeometry x="-90" y="60" width="120" height="80" as="geometry" />
        </mxCell>
        <mxCell id="oApBd-zSoWxOv1SW6AWs-3" value="ID" style="ellipse;whiteSpace=wrap;html=1;" parent="1" vertex="1">
          <mxGeometry x="-330" y="490" width="120" height="80" as="geometry" />
        </mxCell>
        <mxCell id="oApBd-zSoWxOv1SW6AWs-7" value="&lt;font style=&quot;font-size: 14px;&quot;&gt;stores&lt;/font&gt;" style="rounded=0;whiteSpace=wrap;html=1;" parent="1" vertex="1">
          <mxGeometry x="480" y="230" width="150" height="80" as="geometry" />
        </mxCell>
        <mxCell id="oApBd-zSoWxOv1SW6AWs-12" value="" style="endArrow=none;html=1;rounded=0;exitX=1;exitY=0.5;exitDx=0;exitDy=0;entryX=0;entryY=0.5;entryDx=0;entryDy=0;" parent="1" source="oApBd-zSoWxOv1SW6AWs-1" target="oApBd-zSoWxOv1SW6AWs-13" edge="1">
          <mxGeometry width="50" height="50" relative="1" as="geometry">
            <mxPoint x="390" y="390" as="sourcePoint" />
            <mxPoint x="440" y="340" as="targetPoint" />
          </mxGeometry>
        </mxCell>
        <mxCell id="oApBd-zSoWxOv1SW6AWs-13" value="&lt;font style=&quot;font-size: 18px;&quot;&gt;Proveer&lt;/font&gt;" style="rhombus;whiteSpace=wrap;html=1;" parent="1" vertex="1">
          <mxGeometry x="190" y="215" width="120" height="110" as="geometry" />
        </mxCell>
        <mxCell id="oApBd-zSoWxOv1SW6AWs-27" value="&lt;font style=&quot;font-size: 15px;&quot;&gt;(M:M)&lt;/font&gt;" style="text;html=1;align=center;verticalAlign=middle;resizable=0;points=[];autosize=1;strokeColor=none;fillColor=none;" parent="1" vertex="1">
          <mxGeometry x="220" y="168" width="60" height="30" as="geometry" />
        </mxCell>
        <mxCell id="oApBd-zSoWxOv1SW6AWs-29" value="" style="endArrow=none;html=1;rounded=0;entryX=0;entryY=1;entryDx=0;entryDy=0;exitX=1;exitY=0.5;exitDx=0;exitDy=0;" parent="1" source="oApBd-zSoWxOv1SW6AWs-7" target="Tp-25Yz45UkL2R9tX261-17" edge="1">
          <mxGeometry width="50" height="50" relative="1" as="geometry">
            <mxPoint x="630" y="280" as="sourcePoint" />
            <mxPoint x="680" y="270" as="targetPoint" />
          </mxGeometry>
        </mxCell>
        <mxCell id="oApBd-zSoWxOv1SW6AWs-30" value="" style="endArrow=none;html=1;rounded=0;entryX=0.5;entryY=0;entryDx=0;entryDy=0;exitX=0.5;exitY=1;exitDx=0;exitDy=0;" parent="1" source="Tp-25Yz45UkL2R9tX261-14" target="oApBd-zSoWxOv1SW6AWs-7" edge="1">
          <mxGeometry width="50" height="50" relative="1" as="geometry">
            <mxPoint x="555" y="180" as="sourcePoint" />
            <mxPoint x="580" y="200" as="targetPoint" />
          </mxGeometry>
        </mxCell>
        <mxCell id="oApBd-zSoWxOv1SW6AWs-37" value="" style="endArrow=none;html=1;rounded=0;entryX=0.75;entryY=0;entryDx=0;entryDy=0;exitX=0.5;exitY=1;exitDx=0;exitDy=0;" parent="1" target="oApBd-zSoWxOv1SW6AWs-1" edge="1" source="oApBd-zSoWxOv1SW6AWs-2">
          <mxGeometry width="50" height="50" relative="1" as="geometry">
            <mxPoint x="-270" y="250" as="sourcePoint" />
            <mxPoint x="-160" y="260" as="targetPoint" />
          </mxGeometry>
        </mxCell>
        <mxCell id="oApBd-zSoWxOv1SW6AWs-40" value="" style="endArrow=none;html=1;rounded=0;entryX=0.75;entryY=1;entryDx=0;entryDy=0;exitX=1;exitY=0;exitDx=0;exitDy=0;" parent="1" target="oApBd-zSoWxOv1SW6AWs-1" edge="1" source="oApBd-zSoWxOv1SW6AWs-3">
          <mxGeometry width="50" height="50" relative="1" as="geometry">
            <mxPoint x="-270" y="280" as="sourcePoint" />
            <mxPoint x="-180" y="300" as="targetPoint" />
          </mxGeometry>
        </mxCell>
        <mxCell id="Tp-25Yz45UkL2R9tX261-1" value="store" style="ellipse;whiteSpace=wrap;html=1;" vertex="1" parent="1">
          <mxGeometry x="-440" y="450" width="120" height="80" as="geometry" />
        </mxCell>
        <mxCell id="Tp-25Yz45UkL2R9tX261-2" value="" style="endArrow=none;html=1;rounded=0;entryX=0.5;entryY=1;entryDx=0;entryDy=0;exitX=1;exitY=0;exitDx=0;exitDy=0;" edge="1" parent="1" source="Tp-25Yz45UkL2R9tX261-1" target="oApBd-zSoWxOv1SW6AWs-1">
          <mxGeometry width="50" height="50" relative="1" as="geometry">
            <mxPoint x="32" y="422" as="sourcePoint" />
            <mxPoint x="30" y="320" as="targetPoint" />
          </mxGeometry>
        </mxCell>
        <mxCell id="Tp-25Yz45UkL2R9tX261-3" value="name" style="ellipse;whiteSpace=wrap;html=1;" vertex="1" parent="1">
          <mxGeometry x="-520" y="380" width="120" height="80" as="geometry" />
        </mxCell>
        <mxCell id="Tp-25Yz45UkL2R9tX261-4" value="" style="endArrow=none;html=1;rounded=0;entryX=0.25;entryY=1;entryDx=0;entryDy=0;exitX=1;exitY=0;exitDx=0;exitDy=0;" edge="1" parent="1" source="Tp-25Yz45UkL2R9tX261-3" target="oApBd-zSoWxOv1SW6AWs-1">
          <mxGeometry width="50" height="50" relative="1" as="geometry">
            <mxPoint x="-100" y="412" as="sourcePoint" />
            <mxPoint x="-7" y="320" as="targetPoint" />
          </mxGeometry>
        </mxCell>
        <mxCell id="Tp-25Yz45UkL2R9tX261-5" value="quantity" style="ellipse;whiteSpace=wrap;html=1;" vertex="1" parent="1">
          <mxGeometry x="-413" y="270" width="120" height="80" as="geometry" />
        </mxCell>
        <mxCell id="Tp-25Yz45UkL2R9tX261-6" value="min" style="ellipse;whiteSpace=wrap;html=1;" vertex="1" parent="1">
          <mxGeometry x="-420" y="168" width="120" height="82" as="geometry" />
        </mxCell>
        <mxCell id="Tp-25Yz45UkL2R9tX261-7" value="max" style="ellipse;whiteSpace=wrap;html=1;" vertex="1" parent="1">
          <mxGeometry x="-370" y="70" width="120" height="82" as="geometry" />
        </mxCell>
        <mxCell id="Tp-25Yz45UkL2R9tX261-8" value="description" style="ellipse;whiteSpace=wrap;html=1;" vertex="1" parent="1">
          <mxGeometry x="-240" y="30" width="120" height="82" as="geometry" />
        </mxCell>
        <mxCell id="Tp-25Yz45UkL2R9tX261-9" value="" style="endArrow=none;html=1;rounded=0;entryX=0;entryY=0.75;entryDx=0;entryDy=0;exitX=1;exitY=0.5;exitDx=0;exitDy=0;" edge="1" parent="1" source="Tp-25Yz45UkL2R9tX261-5" target="oApBd-zSoWxOv1SW6AWs-1">
          <mxGeometry width="50" height="50" relative="1" as="geometry">
            <mxPoint x="-208" y="382" as="sourcePoint" />
            <mxPoint x="-45" y="320" as="targetPoint" />
          </mxGeometry>
        </mxCell>
        <mxCell id="Tp-25Yz45UkL2R9tX261-10" value="" style="endArrow=none;html=1;rounded=0;entryX=0;entryY=0.5;entryDx=0;entryDy=0;exitX=1;exitY=1;exitDx=0;exitDy=0;" edge="1" parent="1" source="Tp-25Yz45UkL2R9tX261-6" target="oApBd-zSoWxOv1SW6AWs-1">
          <mxGeometry width="50" height="50" relative="1" as="geometry">
            <mxPoint x="-283" y="320" as="sourcePoint" />
            <mxPoint x="-120" y="300" as="targetPoint" />
          </mxGeometry>
        </mxCell>
        <mxCell id="Tp-25Yz45UkL2R9tX261-11" value="" style="endArrow=none;html=1;rounded=0;entryX=0;entryY=0.25;entryDx=0;entryDy=0;exitX=1;exitY=1;exitDx=0;exitDy=0;" edge="1" parent="1" source="Tp-25Yz45UkL2R9tX261-7" target="oApBd-zSoWxOv1SW6AWs-1">
          <mxGeometry width="50" height="50" relative="1" as="geometry">
            <mxPoint x="-307" y="248" as="sourcePoint" />
            <mxPoint x="-120" y="280" as="targetPoint" />
          </mxGeometry>
        </mxCell>
        <mxCell id="Tp-25Yz45UkL2R9tX261-12" value="" style="endArrow=none;html=1;rounded=0;entryX=0.25;entryY=0;entryDx=0;entryDy=0;exitX=0.5;exitY=1;exitDx=0;exitDy=0;" edge="1" parent="1" source="Tp-25Yz45UkL2R9tX261-8" target="oApBd-zSoWxOv1SW6AWs-1">
          <mxGeometry width="50" height="50" relative="1" as="geometry">
            <mxPoint x="-257" y="150" as="sourcePoint" />
            <mxPoint x="-120" y="260" as="targetPoint" />
          </mxGeometry>
        </mxCell>
        <mxCell id="Tp-25Yz45UkL2R9tX261-13" value="" style="endArrow=none;html=1;rounded=0;exitX=1;exitY=0.5;exitDx=0;exitDy=0;entryX=0;entryY=0.5;entryDx=0;entryDy=0;" edge="1" parent="1" source="oApBd-zSoWxOv1SW6AWs-13" target="oApBd-zSoWxOv1SW6AWs-7">
          <mxGeometry width="50" height="50" relative="1" as="geometry">
            <mxPoint x="30" y="280" as="sourcePoint" />
            <mxPoint x="200" y="280" as="targetPoint" />
          </mxGeometry>
        </mxCell>
        <mxCell id="Tp-25Yz45UkL2R9tX261-14" value="ID" style="ellipse;whiteSpace=wrap;html=1;" vertex="1" parent="1">
          <mxGeometry x="495" y="100" width="120" height="80" as="geometry" />
        </mxCell>
        <mxCell id="Tp-25Yz45UkL2R9tX261-15" value="user" style="ellipse;whiteSpace=wrap;html=1;" vertex="1" parent="1">
          <mxGeometry x="630" y="100" width="120" height="80" as="geometry" />
        </mxCell>
        <mxCell id="Tp-25Yz45UkL2R9tX261-16" value="" style="endArrow=none;html=1;rounded=0;entryX=0.75;entryY=0;entryDx=0;entryDy=0;exitX=0;exitY=1;exitDx=0;exitDy=0;" edge="1" parent="1" source="Tp-25Yz45UkL2R9tX261-15" target="oApBd-zSoWxOv1SW6AWs-7">
          <mxGeometry width="50" height="50" relative="1" as="geometry">
            <mxPoint x="565" y="190" as="sourcePoint" />
            <mxPoint x="565" y="240" as="targetPoint" />
          </mxGeometry>
        </mxCell>
        <mxCell id="Tp-25Yz45UkL2R9tX261-17" value="name" style="ellipse;whiteSpace=wrap;html=1;" vertex="1" parent="1">
          <mxGeometry x="680" y="190" width="120" height="80" as="geometry" />
        </mxCell>
        <mxCell id="Tp-25Yz45UkL2R9tX261-18" value="address" style="ellipse;whiteSpace=wrap;html=1;" vertex="1" parent="1">
          <mxGeometry x="670" y="290" width="120" height="80" as="geometry" />
        </mxCell>
        <mxCell id="Tp-25Yz45UkL2R9tX261-19" value="" style="endArrow=none;html=1;rounded=0;entryX=0.013;entryY=0.298;entryDx=0;entryDy=0;entryPerimeter=0;exitX=1;exitY=0.75;exitDx=0;exitDy=0;" edge="1" parent="1" source="oApBd-zSoWxOv1SW6AWs-7" target="Tp-25Yz45UkL2R9tX261-18">
          <mxGeometry width="50" height="50" relative="1" as="geometry">
            <mxPoint x="640" y="290" as="sourcePoint" />
            <mxPoint x="708" y="268" as="targetPoint" />
          </mxGeometry>
        </mxCell>
        <mxCell id="Tp-25Yz45UkL2R9tX261-21" value="&lt;font style=&quot;font-size: 14px;&quot;&gt;sessions&lt;/font&gt;" style="rounded=0;whiteSpace=wrap;html=1;" vertex="1" parent="1">
          <mxGeometry x="677" y="735" width="150" height="80" as="geometry" />
        </mxCell>
        <mxCell id="Tp-25Yz45UkL2R9tX261-22" value="&lt;font style=&quot;font-size: 14px;&quot;&gt;users&lt;/font&gt;" style="rounded=0;whiteSpace=wrap;html=1;" vertex="1" parent="1">
          <mxGeometry x="1282" y="507.5" width="150" height="80" as="geometry" />
        </mxCell>
        <mxCell id="Tp-25Yz45UkL2R9tX261-23" value="&lt;font style=&quot;font-size: 18px;&quot;&gt;Informar&lt;/font&gt;" style="rhombus;whiteSpace=wrap;html=1;" vertex="1" parent="1">
          <mxGeometry x="1007" y="720" width="120" height="110" as="geometry" />
        </mxCell>
        <mxCell id="Tp-25Yz45UkL2R9tX261-24" value="" style="endArrow=none;html=1;rounded=0;exitX=1;exitY=0.5;exitDx=0;exitDy=0;entryX=0;entryY=0.5;entryDx=0;entryDy=0;" edge="1" parent="1" source="Tp-25Yz45UkL2R9tX261-21" target="Tp-25Yz45UkL2R9tX261-23">
          <mxGeometry width="50" height="50" relative="1" as="geometry">
            <mxPoint x="807" y="345" as="sourcePoint" />
            <mxPoint x="977" y="345" as="targetPoint" />
          </mxGeometry>
        </mxCell>
        <mxCell id="Tp-25Yz45UkL2R9tX261-25" value="" style="endArrow=none;html=1;rounded=0;exitX=1;exitY=0.5;exitDx=0;exitDy=0;entryX=0;entryY=0.5;entryDx=0;entryDy=0;" edge="1" parent="1" source="Tp-25Yz45UkL2R9tX261-23" target="Tp-25Yz45UkL2R9tX261-22">
          <mxGeometry width="50" height="50" relative="1" as="geometry">
            <mxPoint x="857" y="785" as="sourcePoint" />
            <mxPoint x="1017" y="785" as="targetPoint" />
          </mxGeometry>
        </mxCell>
        <mxCell id="Tp-25Yz45UkL2R9tX261-31" value="ip" style="ellipse;whiteSpace=wrap;html=1;" vertex="1" parent="1">
          <mxGeometry x="520" y="870" width="120" height="80" as="geometry" />
        </mxCell>
        <mxCell id="Tp-25Yz45UkL2R9tX261-32" value="application" style="ellipse;whiteSpace=wrap;html=1;" vertex="1" parent="1">
          <mxGeometry x="470" y="780" width="120" height="80" as="geometry" />
        </mxCell>
        <mxCell id="Tp-25Yz45UkL2R9tX261-34" value="device" style="ellipse;whiteSpace=wrap;html=1;" vertex="1" parent="1">
          <mxGeometry x="480" y="670" width="120" height="80" as="geometry" />
        </mxCell>
        <mxCell id="Tp-25Yz45UkL2R9tX261-35" value="userID" style="ellipse;whiteSpace=wrap;html=1;" vertex="1" parent="1">
          <mxGeometry x="590" y="610" width="120" height="80" as="geometry" />
        </mxCell>
        <mxCell id="Tp-25Yz45UkL2R9tX261-36" value="logged" style="ellipse;whiteSpace=wrap;html=1;" vertex="1" parent="1">
          <mxGeometry x="650" y="890" width="120" height="80" as="geometry" />
        </mxCell>
        <mxCell id="Tp-25Yz45UkL2R9tX261-37" value="ID" style="ellipse;whiteSpace=wrap;html=1;" vertex="1" parent="1">
          <mxGeometry x="730" y="590" width="120" height="80" as="geometry" />
        </mxCell>
        <mxCell id="Tp-25Yz45UkL2R9tX261-38" value="" style="endArrow=none;html=1;rounded=0;exitX=1;exitY=0;exitDx=0;exitDy=0;entryX=0.75;entryY=1;entryDx=0;entryDy=0;" edge="1" parent="1" source="Tp-25Yz45UkL2R9tX261-36" target="Tp-25Yz45UkL2R9tX261-21">
          <mxGeometry width="50" height="50" relative="1" as="geometry">
            <mxPoint x="837" y="785" as="sourcePoint" />
            <mxPoint x="1017" y="785" as="targetPoint" />
          </mxGeometry>
        </mxCell>
        <mxCell id="Tp-25Yz45UkL2R9tX261-39" value="" style="endArrow=none;html=1;rounded=0;exitX=1;exitY=0;exitDx=0;exitDy=0;entryX=0.5;entryY=1;entryDx=0;entryDy=0;" edge="1" parent="1" source="Tp-25Yz45UkL2R9tX261-31" target="Tp-25Yz45UkL2R9tX261-21">
          <mxGeometry width="50" height="50" relative="1" as="geometry">
            <mxPoint x="762" y="912" as="sourcePoint" />
            <mxPoint x="800" y="825" as="targetPoint" />
          </mxGeometry>
        </mxCell>
        <mxCell id="Tp-25Yz45UkL2R9tX261-40" value="" style="endArrow=none;html=1;rounded=0;exitX=1;exitY=0.5;exitDx=0;exitDy=0;entryX=0;entryY=0.75;entryDx=0;entryDy=0;" edge="1" parent="1" source="Tp-25Yz45UkL2R9tX261-32" target="Tp-25Yz45UkL2R9tX261-21">
          <mxGeometry width="50" height="50" relative="1" as="geometry">
            <mxPoint x="632" y="892" as="sourcePoint" />
            <mxPoint x="675" y="790" as="targetPoint" />
          </mxGeometry>
        </mxCell>
        <mxCell id="Tp-25Yz45UkL2R9tX261-41" value="" style="endArrow=none;html=1;rounded=0;exitX=1;exitY=1;exitDx=0;exitDy=0;entryX=0;entryY=0.25;entryDx=0;entryDy=0;" edge="1" parent="1" source="Tp-25Yz45UkL2R9tX261-34" target="Tp-25Yz45UkL2R9tX261-21">
          <mxGeometry width="50" height="50" relative="1" as="geometry">
            <mxPoint x="600" y="830" as="sourcePoint" />
            <mxPoint x="725" y="825" as="targetPoint" />
          </mxGeometry>
        </mxCell>
        <mxCell id="Tp-25Yz45UkL2R9tX261-42" value="" style="endArrow=none;html=1;rounded=0;exitX=0.5;exitY=1;exitDx=0;exitDy=0;entryX=0.25;entryY=0;entryDx=0;entryDy=0;" edge="1" parent="1" source="Tp-25Yz45UkL2R9tX261-35" target="Tp-25Yz45UkL2R9tX261-21">
          <mxGeometry width="50" height="50" relative="1" as="geometry">
            <mxPoint x="592" y="748" as="sourcePoint" />
            <mxPoint x="687" y="805" as="targetPoint" />
          </mxGeometry>
        </mxCell>
        <mxCell id="Tp-25Yz45UkL2R9tX261-43" value="" style="endArrow=none;html=1;rounded=0;exitX=0;exitY=1;exitDx=0;exitDy=0;entryX=0.5;entryY=0;entryDx=0;entryDy=0;" edge="1" parent="1" source="Tp-25Yz45UkL2R9tX261-37" target="Tp-25Yz45UkL2R9tX261-21">
          <mxGeometry width="50" height="50" relative="1" as="geometry">
            <mxPoint x="660" y="700" as="sourcePoint" />
            <mxPoint x="687" y="765" as="targetPoint" />
          </mxGeometry>
        </mxCell>
        <mxCell id="Tp-25Yz45UkL2R9tX261-44" value="&lt;font style=&quot;font-size: 15px;&quot;&gt;(M:M)&lt;/font&gt;" style="text;html=1;align=center;verticalAlign=middle;resizable=0;points=[];autosize=1;strokeColor=none;fillColor=none;" vertex="1" parent="1">
          <mxGeometry x="1037" y="660" width="60" height="30" as="geometry" />
        </mxCell>
        <mxCell id="Tp-25Yz45UkL2R9tX261-45" value="lastname" style="ellipse;whiteSpace=wrap;html=1;" vertex="1" parent="1">
          <mxGeometry x="1300" y="662.5" width="120" height="80" as="geometry" />
        </mxCell>
        <mxCell id="Tp-25Yz45UkL2R9tX261-46" value="name" style="ellipse;whiteSpace=wrap;html=1;" vertex="1" parent="1">
          <mxGeometry x="1440" y="631.5" width="120" height="80" as="geometry" />
        </mxCell>
        <mxCell id="Tp-25Yz45UkL2R9tX261-47" value="password" style="ellipse;whiteSpace=wrap;html=1;" vertex="1" parent="1">
          <mxGeometry x="1520" y="532.5" width="120" height="80" as="geometry" />
        </mxCell>
        <mxCell id="Tp-25Yz45UkL2R9tX261-48" value="username" style="ellipse;whiteSpace=wrap;html=1;" vertex="1" parent="1">
          <mxGeometry x="1524" y="412.5" width="120" height="80" as="geometry" />
        </mxCell>
        <mxCell id="Tp-25Yz45UkL2R9tX261-49" value="group" style="ellipse;whiteSpace=wrap;html=1;" vertex="1" parent="1">
          <mxGeometry x="1434" y="327.5" width="120" height="80" as="geometry" />
        </mxCell>
        <mxCell id="Tp-25Yz45UkL2R9tX261-50" value="id" style="ellipse;whiteSpace=wrap;html=1;" vertex="1" parent="1">
          <mxGeometry x="1297" y="287.5" width="120" height="80" as="geometry" />
        </mxCell>
        <mxCell id="Tp-25Yz45UkL2R9tX261-51" value="" style="endArrow=none;html=1;rounded=0;exitX=0.25;exitY=0;exitDx=0;exitDy=0;entryX=0.5;entryY=1;entryDx=0;entryDy=0;" edge="1" parent="1" source="Tp-25Yz45UkL2R9tX261-22" target="Tp-25Yz45UkL2R9tX261-50">
          <mxGeometry width="50" height="50" relative="1" as="geometry">
            <mxPoint x="1137" y="557.5" as="sourcePoint" />
            <mxPoint x="1292" y="557.5" as="targetPoint" />
          </mxGeometry>
        </mxCell>
        <mxCell id="Tp-25Yz45UkL2R9tX261-52" value="" style="endArrow=none;html=1;rounded=0;exitX=0.5;exitY=0;exitDx=0;exitDy=0;entryX=0;entryY=1;entryDx=0;entryDy=0;" edge="1" parent="1" source="Tp-25Yz45UkL2R9tX261-22" target="Tp-25Yz45UkL2R9tX261-49">
          <mxGeometry width="50" height="50" relative="1" as="geometry">
            <mxPoint x="1330" y="517.5" as="sourcePoint" />
            <mxPoint x="1367" y="377.5" as="targetPoint" />
          </mxGeometry>
        </mxCell>
        <mxCell id="Tp-25Yz45UkL2R9tX261-53" value="" style="endArrow=none;html=1;rounded=0;exitX=0.75;exitY=0;exitDx=0;exitDy=0;entryX=0;entryY=0.5;entryDx=0;entryDy=0;" edge="1" parent="1" source="Tp-25Yz45UkL2R9tX261-22" target="Tp-25Yz45UkL2R9tX261-48">
          <mxGeometry width="50" height="50" relative="1" as="geometry">
            <mxPoint x="1367" y="517.5" as="sourcePoint" />
            <mxPoint x="1462" y="405.5" as="targetPoint" />
          </mxGeometry>
        </mxCell>
        <mxCell id="Tp-25Yz45UkL2R9tX261-54" value="" style="endArrow=none;html=1;rounded=0;exitX=1;exitY=0.25;exitDx=0;exitDy=0;entryX=0;entryY=0;entryDx=0;entryDy=0;" edge="1" parent="1" source="Tp-25Yz45UkL2R9tX261-22" target="Tp-25Yz45UkL2R9tX261-47">
          <mxGeometry width="50" height="50" relative="1" as="geometry">
            <mxPoint x="1405" y="517.5" as="sourcePoint" />
            <mxPoint x="1534" y="462.5" as="targetPoint" />
          </mxGeometry>
        </mxCell>
        <mxCell id="Tp-25Yz45UkL2R9tX261-55" value="" style="endArrow=none;html=1;rounded=0;exitX=1;exitY=0.5;exitDx=0;exitDy=0;entryX=0.5;entryY=0;entryDx=0;entryDy=0;" edge="1" parent="1" source="Tp-25Yz45UkL2R9tX261-22" target="Tp-25Yz45UkL2R9tX261-46">
          <mxGeometry width="50" height="50" relative="1" as="geometry">
            <mxPoint x="1442" y="537.5" as="sourcePoint" />
            <mxPoint x="1548" y="554.5" as="targetPoint" />
          </mxGeometry>
        </mxCell>
        <mxCell id="Tp-25Yz45UkL2R9tX261-56" value="" style="endArrow=none;html=1;rounded=0;exitX=0.5;exitY=1;exitDx=0;exitDy=0;entryX=0.5;entryY=0;entryDx=0;entryDy=0;" edge="1" parent="1" source="Tp-25Yz45UkL2R9tX261-22" target="Tp-25Yz45UkL2R9tX261-45">
          <mxGeometry width="50" height="50" relative="1" as="geometry">
            <mxPoint x="1442" y="557.5" as="sourcePoint" />
            <mxPoint x="1510" y="641.5" as="targetPoint" />
          </mxGeometry>
        </mxCell>
        <mxCell id="Tp-25Yz45UkL2R9tX261-57" value="phone" style="ellipse;whiteSpace=wrap;html=1;" vertex="1" parent="1">
          <mxGeometry x="1162" y="770" width="120" height="80" as="geometry" />
        </mxCell>
        <mxCell id="Tp-25Yz45UkL2R9tX261-58" value="" style="endArrow=none;html=1;rounded=0;exitX=0.25;exitY=1;exitDx=0;exitDy=0;entryX=1;entryY=0;entryDx=0;entryDy=0;" edge="1" parent="1" source="Tp-25Yz45UkL2R9tX261-22" target="Tp-25Yz45UkL2R9tX261-57">
          <mxGeometry width="50" height="50" relative="1" as="geometry">
            <mxPoint x="1367" y="597.5" as="sourcePoint" />
            <mxPoint x="1370" y="672.5" as="targetPoint" />
          </mxGeometry>
        </mxCell>
        <mxCell id="Tp-25Yz45UkL2R9tX261-59" value="&lt;span style=&quot;font-size: 18px;&quot;&gt;Ordenar&lt;/span&gt;" style="rhombus;whiteSpace=wrap;html=1;" vertex="1" parent="1">
          <mxGeometry x="-40" y="460" width="120" height="110" as="geometry" />
        </mxCell>
        <mxCell id="Tp-25Yz45UkL2R9tX261-60" value="&lt;font style=&quot;font-size: 15px;&quot;&gt;(M:M)&lt;/font&gt;" style="text;html=1;align=center;verticalAlign=middle;resizable=0;points=[];autosize=1;strokeColor=none;fillColor=none;" vertex="1" parent="1">
          <mxGeometry x="60" y="460" width="60" height="30" as="geometry" />
        </mxCell>
        <mxCell id="Tp-25Yz45UkL2R9tX261-61" value="" style="endArrow=none;html=1;rounded=0;exitX=1;exitY=1;exitDx=0;exitDy=0;entryX=0.5;entryY=0;entryDx=0;entryDy=0;" edge="1" parent="1" source="oApBd-zSoWxOv1SW6AWs-1" target="Tp-25Yz45UkL2R9tX261-59">
          <mxGeometry width="50" height="50" relative="1" as="geometry">
            <mxPoint x="30" y="280" as="sourcePoint" />
            <mxPoint x="200" y="280" as="targetPoint" />
          </mxGeometry>
        </mxCell>
        <mxCell id="Tp-25Yz45UkL2R9tX261-63" value="&lt;font style=&quot;font-size: 14px;&quot;&gt;orders&lt;/font&gt;" style="rounded=0;whiteSpace=wrap;html=1;" vertex="1" parent="1">
          <mxGeometry x="-55" y="700" width="150" height="80" as="geometry" />
        </mxCell>
        <mxCell id="Tp-25Yz45UkL2R9tX261-64" value="" style="endArrow=none;html=1;rounded=0;exitX=0.5;exitY=1;exitDx=0;exitDy=0;entryX=0.5;entryY=0;entryDx=0;entryDy=0;" edge="1" parent="1" source="Tp-25Yz45UkL2R9tX261-59" target="Tp-25Yz45UkL2R9tX261-63">
          <mxGeometry width="50" height="50" relative="1" as="geometry">
            <mxPoint x="30" y="320" as="sourcePoint" />
            <mxPoint x="30" y="470" as="targetPoint" />
          </mxGeometry>
        </mxCell>
        <mxCell id="Tp-25Yz45UkL2R9tX261-65" value="store" style="ellipse;whiteSpace=wrap;html=1;" vertex="1" parent="1">
          <mxGeometry x="-260" y="860" width="120" height="80" as="geometry" />
        </mxCell>
        <mxCell id="Tp-25Yz45UkL2R9tX261-67" value="order" style="ellipse;whiteSpace=wrap;html=1;" vertex="1" parent="1">
          <mxGeometry x="-110" y="890" width="120" height="80" as="geometry" />
        </mxCell>
        <mxCell id="Tp-25Yz45UkL2R9tX261-69" value="date" style="ellipse;whiteSpace=wrap;html=1;" vertex="1" parent="1">
          <mxGeometry x="90" y="860" width="120" height="80" as="geometry" />
        </mxCell>
        <mxCell id="Tp-25Yz45UkL2R9tX261-70" value="status" style="ellipse;whiteSpace=wrap;html=1;" vertex="1" parent="1">
          <mxGeometry x="200" y="770" width="120" height="80" as="geometry" />
        </mxCell>
        <mxCell id="Tp-25Yz45UkL2R9tX261-71" value="ID" style="ellipse;whiteSpace=wrap;html=1;" vertex="1" parent="1">
          <mxGeometry x="-330" y="720" width="120" height="80" as="geometry" />
        </mxCell>
        <mxCell id="Tp-25Yz45UkL2R9tX261-72" value="code" style="ellipse;whiteSpace=wrap;html=1;" vertex="1" parent="1">
          <mxGeometry x="230" y="670" width="120" height="80" as="geometry" />
        </mxCell>
        <mxCell id="Tp-25Yz45UkL2R9tX261-73" value="" style="endArrow=none;html=1;rounded=0;exitX=0;exitY=0.25;exitDx=0;exitDy=0;entryX=1;entryY=0;entryDx=0;entryDy=0;" edge="1" parent="1" source="Tp-25Yz45UkL2R9tX261-63" target="Tp-25Yz45UkL2R9tX261-71">
          <mxGeometry width="50" height="50" relative="1" as="geometry">
            <mxPoint x="30" y="580" as="sourcePoint" />
            <mxPoint x="30" y="710" as="targetPoint" />
          </mxGeometry>
        </mxCell>
        <mxCell id="Tp-25Yz45UkL2R9tX261-74" value="" style="endArrow=none;html=1;rounded=0;entryX=0.5;entryY=0;entryDx=0;entryDy=0;exitX=0;exitY=0.5;exitDx=0;exitDy=0;" edge="1" parent="1" source="Tp-25Yz45UkL2R9tX261-63" target="Tp-25Yz45UkL2R9tX261-65">
          <mxGeometry width="50" height="50" relative="1" as="geometry">
            <mxPoint x="-60" y="740" as="sourcePoint" />
            <mxPoint x="-188" y="782" as="targetPoint" />
          </mxGeometry>
        </mxCell>
        <mxCell id="Tp-25Yz45UkL2R9tX261-75" value="" style="endArrow=none;html=1;rounded=0;entryX=0.5;entryY=0;entryDx=0;entryDy=0;exitX=0.25;exitY=1;exitDx=0;exitDy=0;" edge="1" parent="1" source="Tp-25Yz45UkL2R9tX261-63" target="Tp-25Yz45UkL2R9tX261-67">
          <mxGeometry width="50" height="50" relative="1" as="geometry">
            <mxPoint x="-45" y="750" as="sourcePoint" />
            <mxPoint x="-140" y="880" as="targetPoint" />
          </mxGeometry>
        </mxCell>
        <mxCell id="Tp-25Yz45UkL2R9tX261-76" value="" style="endArrow=none;html=1;rounded=0;entryX=0;entryY=0;entryDx=0;entryDy=0;exitX=0.75;exitY=1;exitDx=0;exitDy=0;" edge="1" parent="1" source="Tp-25Yz45UkL2R9tX261-63" target="Tp-25Yz45UkL2R9tX261-69">
          <mxGeometry width="50" height="50" relative="1" as="geometry">
            <mxPoint x="-8" y="790" as="sourcePoint" />
            <mxPoint x="10" y="900" as="targetPoint" />
          </mxGeometry>
        </mxCell>
        <mxCell id="Tp-25Yz45UkL2R9tX261-77" value="" style="endArrow=none;html=1;rounded=0;entryX=0;entryY=0.5;entryDx=0;entryDy=0;exitX=1;exitY=0.75;exitDx=0;exitDy=0;" edge="1" parent="1" source="Tp-25Yz45UkL2R9tX261-63" target="Tp-25Yz45UkL2R9tX261-70">
          <mxGeometry width="50" height="50" relative="1" as="geometry">
            <mxPoint x="67" y="790" as="sourcePoint" />
            <mxPoint x="118" y="882" as="targetPoint" />
          </mxGeometry>
        </mxCell>
        <mxCell id="Tp-25Yz45UkL2R9tX261-78" value="" style="endArrow=none;html=1;rounded=0;entryX=0;entryY=0.5;entryDx=0;entryDy=0;exitX=1;exitY=0.25;exitDx=0;exitDy=0;" edge="1" parent="1" source="Tp-25Yz45UkL2R9tX261-63" target="Tp-25Yz45UkL2R9tX261-72">
          <mxGeometry width="50" height="50" relative="1" as="geometry">
            <mxPoint x="105" y="770" as="sourcePoint" />
            <mxPoint x="210" y="820" as="targetPoint" />
          </mxGeometry>
        </mxCell>
        <mxCell id="Tp-25Yz45UkL2R9tX261-81" value="&lt;font style=&quot;font-size: 15px;&quot;&gt;(M:1)&lt;/font&gt;" style="text;html=1;align=center;verticalAlign=middle;resizable=0;points=[];autosize=1;strokeColor=none;fillColor=none;" vertex="1" parent="1">
          <mxGeometry x="960" y="382.5" width="60" height="30" as="geometry" />
        </mxCell>
        <mxCell id="Tp-25Yz45UkL2R9tX261-82" value="&lt;font style=&quot;font-size: 18px;&quot;&gt;Informar&lt;/font&gt;" style="rhombus;whiteSpace=wrap;html=1;" vertex="1" parent="1">
          <mxGeometry x="917" y="490" width="120" height="110" as="geometry" />
        </mxCell>
        <mxCell id="Tp-25Yz45UkL2R9tX261-84" value="" style="endArrow=none;html=1;rounded=0;exitX=0.5;exitY=1;exitDx=0;exitDy=0;entryX=0;entryY=0.5;entryDx=0;entryDy=0;" edge="1" parent="1" source="oApBd-zSoWxOv1SW6AWs-7" target="Tp-25Yz45UkL2R9tX261-82">
          <mxGeometry width="50" height="50" relative="1" as="geometry">
            <mxPoint x="837" y="785" as="sourcePoint" />
            <mxPoint x="1017" y="785" as="targetPoint" />
            <Array as="points">
              <mxPoint x="555" y="545" />
            </Array>
          </mxGeometry>
        </mxCell>
        <mxCell id="Tp-25Yz45UkL2R9tX261-85" value="" style="endArrow=none;html=1;rounded=0;exitX=1;exitY=0.5;exitDx=0;exitDy=0;entryX=0;entryY=0.5;entryDx=0;entryDy=0;" edge="1" parent="1" source="Tp-25Yz45UkL2R9tX261-82" target="Tp-25Yz45UkL2R9tX261-22">
          <mxGeometry width="50" height="50" relative="1" as="geometry">
            <mxPoint x="565" y="320" as="sourcePoint" />
            <mxPoint x="927" y="545" as="targetPoint" />
          </mxGeometry>
        </mxCell>
      </root>
    </mxGraphModel>
  </diagram>
</mxfile>
